<svg width="32" height="32" viewBox="0 0 32 32" fill="none" xmlns="http://www.w3.org/2000/svg">
<g clip-path="url(#clip0_11_2)">
<rect width="32" height="32" rx="4" fill="#01080F"/>
<path d="M22.9978 23.336C21.933 23.336 20.9396 23.1607 20.0177 22.8101C19.1087 22.4465 18.3101 21.9401 17.6218 21.2908C16.9336 20.6415 16.3947 19.8819 16.0051 19.0118C15.6286 18.1288 15.4403 17.1744 15.4403 16.1485C15.4403 15.1097 15.6286 14.1552 16.0051 13.2852C16.3947 12.4152 16.9271 11.662 17.6024 11.0257C18.2906 10.3894 19.0892 9.896 19.9982 9.54539C20.9072 9.1818 21.8941 9 22.9589 9C24.0367 9 25.0236 9.16881 25.9196 9.50644C26.8156 9.84406 27.5947 10.3115 28.257 10.9089L25.6664 13.519C25.3547 13.1813 24.9716 12.9151 24.5171 12.7203C24.0756 12.5256 23.5562 12.4282 22.9589 12.4282C22.4395 12.4282 21.959 12.5126 21.5175 12.6814C21.089 12.8502 20.7189 13.0969 20.4072 13.4216C20.0956 13.7462 19.8489 14.1423 19.6671 14.6097C19.4982 15.0642 19.4138 15.5772 19.4138 16.1485C19.4138 16.7329 19.4982 17.2588 19.6671 17.7263C19.8489 18.1808 20.0956 18.5703 20.4072 18.895C20.7189 19.2196 21.089 19.4728 21.5175 19.6546C21.959 19.8234 22.4395 19.9078 22.9589 19.9078C23.5432 19.9078 24.0627 19.8169 24.5171 19.6351C24.9846 19.4533 25.3872 19.1871 25.7248 18.8365L28.3349 21.4466C27.6467 22.0439 26.874 22.5114 26.017 22.849C25.1599 23.1737 24.1536 23.336 22.9978 23.336Z" fill="#2DA4F4"/>
<path d="M8.22678 23.336C7.27884 23.336 6.46725 23.1802 5.792 22.8685C5.12974 22.5439 4.53241 22.0764 4 21.4661L6.49322 18.9729C6.73994 19.2845 7.01264 19.5183 7.3113 19.6741C7.62296 19.8299 7.98006 19.9078 8.38261 19.9078C8.70725 19.9078 8.99942 19.8429 9.25913 19.713C9.53183 19.5702 9.74609 19.3624 9.90191 19.0897C10.0707 18.8041 10.1551 18.4405 10.1551 17.999V9.23374H14.0703V17.8431C14.0703 18.9859 13.8365 19.9663 13.369 20.7843C12.9016 21.6024 12.2328 22.2322 11.3628 22.6737C10.4928 23.1152 9.44742 23.336 8.22678 23.336Z" fill="#2DA4F4"/>
</g>
<defs>
<clipPath id="clip0_11_2">
<rect width="32" height="32" fill="white"/>
</clipPath>
</defs>
</svg>
